 http://www.imdb.com/title/tt0074958/

Source: Network.1976.720p.BluRay.x264-SiNNERS

Subs: Arabic, Brazilian, Bulgarian, Chinese, Danish, Dutch, English, Finnish, French, German, Greek, Hungarian, Italian, Portuguese and Spanish.

Sample and Screens included.

General
Complete name                    : Network-720p MP4 AAC x264 BRRip 1976-CC.mp4
Format                           : MPEG-4
Format profile                   : Base Media
Codec ID                         : isom
File size                        : 1.86 GiB
Duration                         : 2h 1mn
Overall bit rate                 : 2 193 Kbps
Encoded date                     : UTC 2012-06-22 09:08:37

Video
ID                               : 1
Format                           : AVC
Format/Info                      : Advanced Video Codec
Format profile                   : High@L3.1
Format settings, CABAC           : Yes
Format settings, ReFrames        : 5 frames
Codec ID                         : avc1
Codec ID/Info                    : Advanced Video Coding
Duration                         : 2h 1mn
Bit rate mode                    : Variable
Bit rate                         : 2 038 Kbps
Maximum bit rate                 : 12.9 Mbps
Width                            : 1 280 pixels
Height                           : 720 pixels
Display aspect ratio             : 16:9
Frame rate mode                  : Variable
Frame rate                       : 23.976 fps
Minimum frame rate               : 19.048 fps
Maximum frame rate               : 24.390 fps
Resolution                       : 24 bits
Colorimetry                      : 4:2:0
Scan type                        : Progressive
Bits/(Pixel*Frame)               : 0.092
Stream size                      : 1.72 GiB (92%)
Writing library                  : x264 core 112

Audio
ID                               : 2
Format                           : AAC
Format/Info                      : Advanced Audio Codec
Format version                   : Version 4
Format profile                   : LC
Format settings, SBR             : No
Format settings, PS              : Yes
Codec ID                         : 40
Duration                         : 2h 1mn
Bit rate mode                    : Variable
Bit rate                         : 160 Kbps
Maximum bit rate                 : 203 Kbps
Channel(s)                       : 2 channels
Channel positions                : Front: L R
Sampling rate                    : 48.0 KHz
Resolution                       : 16 bits
Stream size                      : 139 MiB (7%)
Language                         : English

Enjoy...

Requested by DreamExtractor and varuneric.